<svg xmlns="http://www.w3.org/2000/svg" viewBox="0 0 16 16"><defs><style>.a{fill:#fff;}</style></defs><path class="a" d="M8,0a8,8,0,1,0,8,8A8,8,0,0,0,8,0Zm3.98,6.2.006.255a5.6,5.6,0,0,1-8.623,4.719,4.05,4.05,0,0,0,.47.028,3.952,3.952,0,0,0,2.446-.843,1.973,1.973,0,0,1-1.84-1.368,2.025,2.025,0,0,0,.89-.034A1.972,1.972,0,0,1,3.749,7.03V7.005a1.967,1.967,0,0,0,.892.247,1.973,1.973,0,0,1-.61-2.629,5.59,5.59,0,0,0,4.06,2.058,1.971,1.971,0,0,1,3.357-1.8A3.989,3.989,0,0,0,12.7,4.407a1.975,1.975,0,0,1-.866,1.09,3.948,3.948,0,0,0,1.131-.31A3.981,3.981,0,0,1,11.98,6.2Z"/></svg>