<svg xmlns="http://www.w3.org/2000/svg" viewBox="0 0 138 47.74"><defs><style>.a{fill:#fff;}</style></defs><g transform="translate(-138 -52)"><g transform="translate(138 52)"><path class="a" d="M176.381,57.96a1.443,1.443,0,0,0,.215,1.848c4.727,4.383,9.668,4.985,14.4,4.985,4.426,0,8.121-1.117,10.657-3.223a9.741,9.741,0,0,0,3.567-7.606c0-8.551-7.563-10.141-14.137-10.571-4.039-.258-6.016-1.375-6.016-3.481,0-1.977,2.149-3.137,5.887-3.137a11.372,11.372,0,0,1,7.09,2.063,1.4,1.4,0,0,0,1.891-.215l2.707-3.18a1.4,1.4,0,0,0-.215-2.02c-3.61-2.707-6.532-3.524-11.6-3.524a18.621,18.621,0,0,0-9.239,2.277,8.991,8.991,0,0,0-4.727,8.036c0,7.993,8.594,9.84,13.708,10.227,4.684.258,6.446,1.16,6.446,3.352a3.047,3.047,0,0,1-.988,2.192,6.982,6.982,0,0,1-4.856,1.633,19.4,19.4,0,0,1-10.184-3.524,1.385,1.385,0,0,0-1.977.3Z" transform="translate(-100.452 -17.052)"/><path class="a" d="M18.692,13.063c-4.426,0-8.809,2.063-10.7,5.371V1.031A1.046,1.046,0,0,0,6.961,0H1.031A1.046,1.046,0,0,0,0,1.031V45.893a1.046,1.046,0,0,0,1.031,1.031H6.66a1.064,1.064,0,0,0,1.031-.945l.3-3.738c2.106,3.867,7.047,5.371,10.743,5.371,9.754,0,17.016-5.715,17.016-17.317C35.795,18.95,28.361,12.977,18.692,13.063Zm-.258,27.415A9.932,9.932,0,0,1,12.5,38.5,6.228,6.228,0,0,1,7.95,39.963a.185.185,0,0,1-.086-.344A6.657,6.657,0,0,0,10.1,35.966a9.994,9.994,0,1,1,8.336,4.512Z"/><path class="a" d="M121.606,31.172h-5.8a1.037,1.037,0,0,0-1.031.988l-.215,3.61c-1.891-3.266-6.1-5.371-10.528-5.371C94.363,30.313,86.8,36.286,86.8,47.716c0,11.6,7.305,17.317,17.016,17.317,3.7,0,8.637-1.5,10.743-5.371l.3,3.738a1.032,1.032,0,0,0,1.031.945h5.715a1.046,1.046,0,0,0,1.031-1.031V32.2A1.046,1.046,0,0,0,121.606,31.172Zm-6.789,26.169a6.434,6.434,0,0,1-4.641-1.547,9.913,9.913,0,0,1-9.153,1.5,7.353,7.353,0,0,1-2.32-1.16,10.2,10.2,0,0,1,0-16.93,8.669,8.669,0,0,1,1.762-.945,9.77,9.77,0,0,1,3.7-.731,10.132,10.132,0,0,1,8.465,15.512,7.426,7.426,0,0,0,2.277,3.867C115.032,57.084,114.989,57.341,114.817,57.341Z" transform="translate(-49.501 -17.336)"/><path class="a" d="M280.337,45.52,265.77,29.492,278.318,15.4a.878.878,0,0,0-.645-1.461h-7.692a1.447,1.447,0,0,0-1.117.516l-10.7,11.9V1.131A1.046,1.046,0,0,0,257.133.1h-6.1A1.046,1.046,0,0,0,250,1.131V45.95a1.046,1.046,0,0,0,1.031,1.031h6.1a1.046,1.046,0,0,0,1.031-1.031V32.027l12.5,14.438a1.527,1.527,0,0,0,1.117.516h7.95A.865.865,0,0,0,280.337,45.52Z" transform="translate(-142.573 -0.057)"/></g></g></svg>